<mxfile host="app.diagrams.net" agent="Mozilla/5.0 (Windows NT 10.0; Win64; x64) AppleWebKit/537.36 (KHTML, like Gecko) Chrome/132.0.0.0 Safari/537.36 Edg/132.0.0.0" version="26.0.11">
  <diagram name="Page-1" id="HcTifj8eDOoPDBD9C9sM">
    <mxGraphModel dx="794" dy="458" grid="1" gridSize="10" guides="1" tooltips="1" connect="1" arrows="1" fold="1" page="1" pageScale="1" pageWidth="1100" pageHeight="850" math="0" shadow="0">
      <root>
        <mxCell id="0" />
        <mxCell id="1" parent="0" />
        <mxCell id="76cfWFmHfnDh-J4u0wdx-2" value="" style="shape=umlLifeline;perimeter=lifelinePerimeter;whiteSpace=wrap;html=1;container=1;dropTarget=0;collapsible=0;recursiveResize=0;outlineConnect=0;portConstraint=eastwest;newEdgeStyle={&quot;curved&quot;:0,&quot;rounded&quot;:0};participant=umlActor;" vertex="1" parent="1">
          <mxGeometry x="30" y="80" width="20" height="600" as="geometry" />
        </mxCell>
        <mxCell id="76cfWFmHfnDh-J4u0wdx-3" value="" style="html=1;points=[];perimeter=orthogonalPerimeter;rounded=0;shadow=0;comic=0;labelBackgroundColor=none;strokeWidth=1;fontFamily=Verdana;fontSize=12;align=center;" vertex="1" parent="1">
          <mxGeometry x="35" y="160" width="10" height="420" as="geometry" />
        </mxCell>
        <mxCell id="76cfWFmHfnDh-J4u0wdx-4" value="UI" style="shape=umlLifeline;perimeter=lifelinePerimeter;whiteSpace=wrap;html=1;container=1;collapsible=0;recursiveResize=0;outlineConnect=0;rounded=1;shadow=0;comic=0;labelBackgroundColor=none;strokeWidth=1;fontFamily=Verdana;fontSize=12;align=center;" vertex="1" parent="1">
          <mxGeometry x="240" y="80" width="100" height="600" as="geometry" />
        </mxCell>
        <mxCell id="76cfWFmHfnDh-J4u0wdx-32" style="edgeStyle=orthogonalEdgeStyle;rounded=0;orthogonalLoop=1;jettySize=auto;html=1;entryX=0.967;entryY=0.371;entryDx=0;entryDy=0;entryPerimeter=0;" edge="1" parent="76cfWFmHfnDh-J4u0wdx-4" source="76cfWFmHfnDh-J4u0wdx-5" target="76cfWFmHfnDh-J4u0wdx-5">
          <mxGeometry relative="1" as="geometry">
            <mxPoint x="120" y="250" as="targetPoint" />
            <Array as="points">
              <mxPoint x="80" y="300" />
              <mxPoint x="80" y="236" />
            </Array>
          </mxGeometry>
        </mxCell>
        <mxCell id="76cfWFmHfnDh-J4u0wdx-5" value="" style="html=1;points=[];perimeter=orthogonalPerimeter;rounded=0;shadow=0;comic=0;labelBackgroundColor=none;strokeWidth=1;fontFamily=Verdana;fontSize=12;align=center;" vertex="1" parent="76cfWFmHfnDh-J4u0wdx-4">
          <mxGeometry x="45" y="80" width="10" height="420" as="geometry" />
        </mxCell>
        <mxCell id="76cfWFmHfnDh-J4u0wdx-6" value="" style="endArrow=block;dashed=1;endFill=0;endSize=12;html=1;rounded=0;" edge="1" parent="76cfWFmHfnDh-J4u0wdx-4">
          <mxGeometry width="160" relative="1" as="geometry">
            <mxPoint x="205" y="394" as="sourcePoint" />
            <mxPoint x="55" y="394" as="targetPoint" />
          </mxGeometry>
        </mxCell>
        <mxCell id="76cfWFmHfnDh-J4u0wdx-7" value="Updated successfully" style="edgeLabel;html=1;align=center;verticalAlign=middle;resizable=0;points=[];" connectable="0" vertex="1" parent="76cfWFmHfnDh-J4u0wdx-6">
          <mxGeometry x="-0.1015" y="3" relative="1" as="geometry">
            <mxPoint x="-4" y="7" as="offset" />
          </mxGeometry>
        </mxCell>
        <mxCell id="76cfWFmHfnDh-J4u0wdx-8" value="Enter profile details" style="html=1;verticalAlign=bottom;endArrow=block;labelBackgroundColor=none;fontFamily=Verdana;fontSize=12;edgeStyle=elbowEdgeStyle;elbow=vertical;exitX=1.033;exitY=0.095;exitDx=0;exitDy=0;exitPerimeter=0;" edge="1" parent="76cfWFmHfnDh-J4u0wdx-4">
          <mxGeometry relative="1" as="geometry">
            <mxPoint x="-194.66999999999996" y="104.89999999999998" as="sourcePoint" />
            <mxPoint x="45" y="104" as="targetPoint" />
          </mxGeometry>
        </mxCell>
        <mxCell id="76cfWFmHfnDh-J4u0wdx-9" value="Server" style="shape=umlLifeline;perimeter=lifelinePerimeter;whiteSpace=wrap;html=1;container=1;collapsible=0;recursiveResize=0;outlineConnect=0;rounded=1;shadow=0;comic=0;labelBackgroundColor=none;strokeWidth=1;fontFamily=Verdana;fontSize=12;align=center;" vertex="1" parent="1">
          <mxGeometry x="400" y="80" width="100" height="580" as="geometry" />
        </mxCell>
        <mxCell id="76cfWFmHfnDh-J4u0wdx-10" value="" style="html=1;points=[];perimeter=orthogonalPerimeter;rounded=0;shadow=0;comic=0;labelBackgroundColor=none;strokeWidth=1;fontFamily=Verdana;fontSize=12;align=center;" vertex="1" parent="76cfWFmHfnDh-J4u0wdx-9">
          <mxGeometry x="45" y="80" width="10" height="410" as="geometry" />
        </mxCell>
        <mxCell id="76cfWFmHfnDh-J4u0wdx-11" value="Status" style="endArrow=open;endSize=12;dashed=1;html=1;rounded=0;" edge="1" parent="76cfWFmHfnDh-J4u0wdx-9">
          <mxGeometry x="0.0714" y="11" width="160" relative="1" as="geometry">
            <mxPoint x="195" y="299.5" as="sourcePoint" />
            <mxPoint x="55" y="299.5" as="targetPoint" />
            <mxPoint as="offset" />
          </mxGeometry>
        </mxCell>
        <mxCell id="76cfWFmHfnDh-J4u0wdx-12" value="Database" style="shape=umlLifeline;perimeter=lifelinePerimeter;whiteSpace=wrap;html=1;container=1;collapsible=0;recursiveResize=0;outlineConnect=0;rounded=1;shadow=0;comic=0;labelBackgroundColor=none;strokeWidth=1;fontFamily=Verdana;fontSize=12;align=center;" vertex="1" parent="1">
          <mxGeometry x="540" y="80" width="100" height="580" as="geometry" />
        </mxCell>
        <mxCell id="76cfWFmHfnDh-J4u0wdx-13" value="" style="html=1;points=[];perimeter=orthogonalPerimeter;rounded=0;shadow=0;comic=0;labelBackgroundColor=none;strokeWidth=1;fontFamily=Verdana;fontSize=12;align=center;" vertex="1" parent="1">
          <mxGeometry x="585" y="160" width="10" height="410" as="geometry" />
        </mxCell>
        <mxCell id="76cfWFmHfnDh-J4u0wdx-14" value="Update details" style="html=1;verticalAlign=bottom;endArrow=block;labelBackgroundColor=none;fontFamily=Verdana;fontSize=12;edgeStyle=elbowEdgeStyle;elbow=vertical;" edge="1" parent="1" source="76cfWFmHfnDh-J4u0wdx-10" target="76cfWFmHfnDh-J4u0wdx-13">
          <mxGeometry relative="1" as="geometry">
            <mxPoint x="510" y="220" as="sourcePoint" />
            <Array as="points">
              <mxPoint x="460" y="220" />
            </Array>
          </mxGeometry>
        </mxCell>
        <mxCell id="76cfWFmHfnDh-J4u0wdx-15" value="Profile details" style="html=1;verticalAlign=bottom;endArrow=block;entryX=0;entryY=0;labelBackgroundColor=none;fontFamily=Verdana;fontSize=12;edgeStyle=elbowEdgeStyle;elbow=vertical;" edge="1" parent="1">
          <mxGeometry relative="1" as="geometry">
            <mxPoint x="295" y="201" as="sourcePoint" />
            <mxPoint x="445" y="201.0000000000008" as="targetPoint" />
          </mxGeometry>
        </mxCell>
        <mxCell id="76cfWFmHfnDh-J4u0wdx-16" value="[http request]" style="text;strokeColor=none;align=center;fillColor=none;html=1;verticalAlign=middle;whiteSpace=wrap;rounded=0;" vertex="1" parent="1">
          <mxGeometry x="330" y="200" width="80" height="22" as="geometry" />
        </mxCell>
        <mxCell id="76cfWFmHfnDh-J4u0wdx-20" value="" style="endArrow=none;dashed=1;html=1;dashPattern=1 3;strokeWidth=2;rounded=0;entryX=1.004;entryY=0.5;entryDx=0;entryDy=0;entryPerimeter=0;exitX=0.004;exitY=0.5;exitDx=0;exitDy=0;exitPerimeter=0;" edge="1" parent="1">
          <mxGeometry width="50" height="50" relative="1" as="geometry">
            <mxPoint x="21.799999999999955" y="300" as="sourcePoint" />
            <mxPoint x="471.79999999999995" y="300" as="targetPoint" />
          </mxGeometry>
        </mxCell>
        <mxCell id="76cfWFmHfnDh-J4u0wdx-24" value="alt" style="shape=umlFrame;whiteSpace=wrap;html=1;pointerEvents=0;" vertex="1" parent="1">
          <mxGeometry x="20" y="425" width="600" height="120" as="geometry" />
        </mxCell>
        <mxCell id="76cfWFmHfnDh-J4u0wdx-25" value="[Update Status: OK]" style="text;strokeColor=none;align=center;fillColor=none;html=1;verticalAlign=middle;whiteSpace=wrap;rounded=0;" vertex="1" parent="1">
          <mxGeometry x="50" y="460" width="120" height="30" as="geometry" />
        </mxCell>
        <mxCell id="76cfWFmHfnDh-J4u0wdx-26" value="" style="endArrow=block;dashed=1;endFill=0;endSize=12;html=1;rounded=0;" edge="1" parent="1">
          <mxGeometry width="160" relative="1" as="geometry">
            <mxPoint x="290" y="475" as="sourcePoint" />
            <mxPoint x="170" y="475" as="targetPoint" />
          </mxGeometry>
        </mxCell>
        <mxCell id="76cfWFmHfnDh-J4u0wdx-27" value="Error" style="edgeLabel;html=1;align=center;verticalAlign=middle;resizable=0;points=[];" connectable="0" vertex="1" parent="76cfWFmHfnDh-J4u0wdx-26">
          <mxGeometry x="-0.1667" y="1" relative="1" as="geometry">
            <mxPoint y="39" as="offset" />
          </mxGeometry>
        </mxCell>
        <mxCell id="76cfWFmHfnDh-J4u0wdx-28" value="Success Message" style="edgeLabel;html=1;align=center;verticalAlign=middle;resizable=0;points=[];" connectable="0" vertex="1" parent="76cfWFmHfnDh-J4u0wdx-26">
          <mxGeometry x="-0.12" y="4" relative="1" as="geometry">
            <mxPoint x="-3" y="4" as="offset" />
          </mxGeometry>
        </mxCell>
        <mxCell id="76cfWFmHfnDh-J4u0wdx-29" value="[Update Status: Fail]" style="text;strokeColor=none;align=center;fillColor=none;html=1;verticalAlign=middle;whiteSpace=wrap;rounded=0;" vertex="1" parent="1">
          <mxGeometry x="45" y="510" width="130" height="30" as="geometry" />
        </mxCell>
        <mxCell id="76cfWFmHfnDh-J4u0wdx-30" value="" style="endArrow=block;dashed=1;endFill=0;endSize=12;html=1;rounded=0;entryX=1;entryY=0.5;entryDx=0;entryDy=0;" edge="1" parent="1" source="76cfWFmHfnDh-J4u0wdx-10" target="76cfWFmHfnDh-J4u0wdx-29">
          <mxGeometry width="160" relative="1" as="geometry">
            <mxPoint x="290" y="340" as="sourcePoint" />
            <mxPoint x="450" y="340" as="targetPoint" />
          </mxGeometry>
        </mxCell>
        <mxCell id="76cfWFmHfnDh-J4u0wdx-33" value="Form verification" style="edgeLabel;html=1;align=center;verticalAlign=middle;resizable=0;points=[];" connectable="0" vertex="1" parent="1">
          <mxGeometry x="380" y="350" as="geometry">
            <mxPoint x="-11" as="offset" />
          </mxGeometry>
        </mxCell>
      </root>
    </mxGraphModel>
  </diagram>
</mxfile>
